<svg xmlns="http://www.w3.org/2000/svg" width="32" height="32" viewBox="0 0 32 32">
  <circle cx="16" cy="16" r="16" fill="#111111"/>
  <g transform="translate(8, 5) scale(0.5)">
    <!-- Rocket body -->
    <path d="M16 2C16 2 12 8 12 18C12 22 14 26 16 28C18 26 20 22 20 18C20 8 16 2 16 2Z" fill="#EF4444"/>
    <!-- Rocket nose -->
    <path d="M16 2C16 2 14 6 14 8C14 10 15 11 16 11C17 11 18 10 18 8C18 6 16 2 16 2Z" fill="#FCA5A5"/>
    <!-- Left fin -->
    <path d="M12 20L8 26L12 24Z" fill="#DC2626"/>
    <!-- Right fin -->
    <path d="M20 20L24 26L20 24Z" fill="#DC2626"/>
    <!-- Window -->
    <circle cx="16" cy="14" r="2.5" fill="#1E1E1E"/>
    <circle cx="16" cy="14" r="1.5" fill="#93C5FD"/>
    <!-- Flame -->
    <path d="M14 27C14 27 15 32 16 32C17 32 18 27 18 27C17 29 15 29 14 27Z" fill="#FBBF24"/>
    <path d="M15 28C15 28 15.5 31 16 31C16.5 31 17 28 17 28C16.5 29.5 15.5 29.5 15 28Z" fill="#FDE68A"/>
  </g>
</svg>
